<?xml version="1.0"?>
<svg width="300" xmlns="http://www.w3.org/2000/svg" viewBox="-52 -50 104 160"><polygon transform="rotate(-210, 25.98076211353316 -14.999999999999993)" points="25.98076211353316,-30.999999999999993 7.505553499465133,1.000000000000007 44.45597072760118,1.000000000000007" fill="green"></polygon><polygon transform="rotate(-270, 3.67394039744206e-15 -30)" points="3.67394039744206e-15,-46 -18.475208614068023,-14 18.47520861406803,-14" fill="green"></polygon><polygon transform="rotate(-330, -25.980762113533153 -15.000000000000014)" points="-25.980762113533153,-31.000000000000014 -44.45597072760118,0.9999999999999858 -7.505553499465126,0.9999999999999858" fill="green"></polygon><polygon transform="rotate(-390, -25.98076211353317 14.99999999999998)" points="-25.98076211353317,-1.0000000000000195 -44.4559707276012,30.99999999999998 -7.505553499465144,30.99999999999998" fill="green"></polygon><polygon transform="rotate(-90, 0 30)" points="0,14 -18.475208614068027,46 18.475208614068027,46" fill="green"></polygon><polygon transform="rotate(-30, 25.980762113533157 45)" points="25.980762113533157,29 7.50555349946513,61 44.45597072760118,61" fill="green"></polygon><polygon transform="rotate(30, 25.98076211353316 75)" points="25.98076211353316,59 7.505553499465133,91 44.45597072760118,91" fill="green"></polygon><polygon transform="rotate(90, 3.67394039744206e-15 90)" points="3.67394039744206e-15,74 -18.475208614068023,106 18.47520861406803,106" fill="green"></polygon><polygon transform="rotate(150, -25.980762113533153 75.00000000000001)" points="-25.980762113533153,59.000000000000014 -44.45597072760118,91.00000000000001 -7.505553499465126,91.00000000000001" fill="green"></polygon></svg>