<?xml version="1.0"?>
<svg width="300" xmlns="http://www.w3.org/2000/svg" viewBox="-44 -45 90 150"><polygon transform="rotate(-210, 25.98076211353316 -14.999999999999993)" points="25.98076211353316,-25.999999999999993 13.279056191361393,-3.999999999999993 38.68246803570493,-3.999999999999993" fill="green"></polygon><polygon transform="rotate(-250, 10.260604299770065 -28.19077862357725)" points="10.260604299770065,-39.190778623577245 -2.4411016224017015,-17.19077862357725 22.962310221941834,-17.19077862357725" fill="green"></polygon><polygon transform="rotate(-290, -10.26060429977006 -28.190778623577252)" points="-10.26060429977006,-39.19077862357725 -22.962310221941827,-17.190778623577252 2.441101622401707,-17.190778623577252" fill="green"></polygon><polygon transform="rotate(-330, -25.980762113533153 -15.000000000000014)" points="-25.980762113533153,-26.000000000000014 -38.68246803570492,-4.000000000000014 -13.279056191361386,-4.000000000000014" fill="green"></polygon><polygon transform="rotate(-370, -29.544232590366242 5.209445330007899)" points="-29.544232590366242,-5.790554669992101 -42.24593851253801,16.2094453300079 -16.842526668194473,16.2094453300079" fill="green"></polygon><polygon transform="rotate(-410, -19.283628290596187 22.981333293569335)" points="-19.283628290596187,11.981333293569335 -31.985334212767953,33.981333293569335 -6.58192236842442,33.981333293569335" fill="green"></polygon><polygon transform="rotate(-90, 0 30)" points="0,19 -12.701705922171767,41 12.701705922171767,41" fill="green"></polygon><polygon transform="rotate(-50, 19.283628290596177 37.018666706430665)" points="19.283628290596177,26.018666706430665 6.58192236842441,48.018666706430665 31.985334212767945,48.018666706430665" fill="green"></polygon><polygon transform="rotate(-10, 29.544232590366242 54.79055466999209)" points="29.544232590366242,43.79055466999209 16.842526668194473,65.79055466999209 42.24593851253801,65.79055466999209" fill="green"></polygon><polygon transform="rotate(30, 25.98076211353316 75)" points="25.98076211353316,64 13.279056191361393,86 38.68246803570493,86" fill="green"></polygon><polygon transform="rotate(70, 10.260604299770065 88.19077862357724)" points="10.260604299770065,77.19077862357724 -2.4411016224017015,99.19077862357724 22.962310221941834,99.19077862357724" fill="green"></polygon><polygon transform="rotate(110, -10.26060429977006 88.19077862357724)" points="-10.26060429977006,77.19077862357724 -22.962310221941827,99.19077862357724 2.441101622401707,99.19077862357724" fill="green"></polygon><polygon transform="rotate(150, -25.980762113533153 75.00000000000001)" points="-25.980762113533153,64.00000000000001 -38.68246803570492,86.00000000000001 -13.279056191361386,86.00000000000001" fill="green"></polygon></svg>